PathFileType	4	(X/Y/Z)	Walk1.trc
DataRate	CameraRate	NumFrames	NumMarkers	Units	OrigDataRate	OrigDataStartFrame	OrigNumFrames
200.000000	200.000000	5	56	mm	200.000000	295	536
Frame#	Times		RBHD		C7		T10		CLAV		RBack		LASI		RASI		LPSI		RACR1		RUA1		RElbow		RFA1		RWRR		RWRU		RCAR		LACR1		LElbow		LElbowM		LFA1		LWRR		LWRU		RTH1		RTH3		RTH2		RTH4		RLFC		RTB1		RTB3		RTB2		RTB4		RMMAL		RMT1		RMT5		LTH3		LTH2		LTH4		LTB1		RPSI		LBHD		LLFC		LTB4		LTH1		LTB3		LFHD		RElbowM		LMT1		LCAL		LMT5		RLMAL		LLMAL		LTB2		LCAR		RToe		LToe		LUA1		RCAL
			X1	Y1	Z1	X2	Y2	Z2	X3	Y3	Z3	X4	Y4	Z4	X5	Y5	Z5	X6	Y6	Z6	X7	Y7	Z7	X8	Y8	Z8	X9	Y9	Z9	X10	Y10	Z10	X11	Y11	Z11	X12	Y12	Z12	X13	Y13	Z13	X14	Y14	Z14	X15	Y15	Z15	X16	Y16	Z16	X17	Y17	Z17	X18	Y18	Z18	X19	Y19	Z19	X20	Y20	Z20	X21	Y21	Z21	X22	Y22	Z22	X23	Y23	Z23	X24	Y24	Z24	X25	Y25	Z25	X26	Y26	Z26	X27	Y27	Z27	X28	Y28	Z28	X29	Y29	Z29	X30	Y30	Z30	X31	Y31	Z31	X32	Y32	Z32	X33	Y33	Z33	X34	Y34	Z34	X35	Y35	Z35	X36	Y36	Z36	X37	Y37	Z37	X38	Y38	Z38	X39	Y39	Z39	X40	Y40	Z40	X41	Y41	Z41	X42	Y42	Z42	X43	Y43	Z43	X44	Y44	Z44	X45	Y45	Z45	X46	Y46	Z46	X47	Y47	Z47	X48	Y48	Z48	X49	Y49	Z49	X50	Y50	Z50	X51	Y51	Z51	X52	Y52	Z52	X53	Y53	Z53	X54	Y54	Z54	X55	Y55	Z55	X56	Y56	Z56

295	1.475	-74.642	1575.7	404.33	-92.177	1449.3	337.87	-188.68	1140.8	318.01	42.488	1370.2	309.47	-152.25	1355.6	440.48	-6.5648	955.25	160.68	-1.102	950.65	464.52	-179.89	968.28	255.74	-11.05	1404.4	476.16	-19.592	1219.9	570.95	-27.113	1090.1	613.33	84.234	985.03	623.95	199.99	913.44	571.88	145.63	871.91	609.2	211.99	854.03	611.6	-70.778	1439.6	158.92	-197.12	1128.9	65.649	-206.58	1128.6	144.63	-121.48	993.34	16.436	-57.388	891.92	43.216	-135.49	874.57	26.005	-69.754	744.65	504.79	-90.766	559.07	474.69	-14.443	651.57	458.24	-79.358	650.06	493.48	-107.84	454.83	454.43	-97.941	361.91	365.95	-148.91	178.67	355.68	-127.81	266.8	435.85	-120.57	271.73	362.74	-203.88	101.57	307.48	-81.822	38.999	302.77	-104.63	31.878	394.33	92.411	598.66	137.62	109.33	712.72	152.71	47.687	675.83	121.66	177.55	405.52	209.87	-183.27	972.79	360.4	-76.166	1582.5	266.3	124.06	491.37	155.56	166.57	313.47	217.46	0.052176	761.78	118.73	158.97	221.6	224.48	103.44	1625	289.48	-44.119	1050.9	523.35	251.97	64.135	266.13	49.88	53.329	261.02	221.68	54.172	190.45	-224.01	84.607	395.42	88.234	96.908	208.3	129.36	311.97	155.28	-65.387	838.03	-3.5073	-25.625	26.575	321.13	290.27	74.722	242.66	-146.62	1252.2	71.602	-282.53	40.876	355.72
296	1.48	-69.016	1575.2	403.81	-86.455	1448.6	337.47	-182.91	1140.1	317.74	48.242	1369.4	309.27	-147	1355.1	440.25	-0.80548	954.39	160.5	4.3665	949.93	464.49	-174.36	967.41	255.26	-5.4062	1403.9	476.02	-13.385	1219.6	570.93	-20.028	1090.1	613.7	92.589	986.24	624.09	209.21	916.35	572.09	155.32	873.88	609.27	222.22	857.26	611.24	-65.233	1438.6	158.65	-192.32	1128.4	65.933	-201.25	1127.8	144.98	-117.9	992.12	16.114	-54.528	890.15	42.605	-132.94	873.46	25.632	-65.337	744.21	504.72	-87.535	558.51	474.73	-10.33	650.57	458.12	-75.309	649.54	493.68	-105.3	454.59	454.13	-96.076	361.4	365.9	-148.43	178.9	355.37	-126.29	266.57	435.84	-118.92	271.44	362.78	-203.66	101.8	307.45	-81.761	38.995	302.76	-104.62	31.887	394.31	97.007	597.61	138.08	114.31	711.64	153.2	53.181	674.98	121.65	184.06	405.83	210.19	-177.84	972.1	360.13	-70.617	1581.6	265.73	128.6	489.87	156.34	176.56	313.25	217.82	5.5218	760.88	118.48	172.56	221.08	224.63	108.79	1624.4	288.91	-36.854	1050.5	524.15	271.52	65.314	266.63	69.472	49.962	261.91	241.03	54.626	190.89	-223.75	85.054	395.38	106.29	94.107	208.77	139.42	310.38	155.62	-63.416	836.54	-4.0194	-25.463	26.415	321.1	309.56	76.519	243.11	-141.5	1251.4	71.59	-282.41	41.351	355.78
297	1.485	-63.449	1574.8	403.17	-80.957	1447.9	337.38	-177.78	1140.1	317.92	53.871	1368.7	309.11	-141.15	1354.3	440.02	5.0456	953.57	160.14	9.7339	949.33	464.39	-168.81	966.63	254.77	0.1693	1403.4	475.79	-7.1623	1219.2	571.04	-13.021	1089.8	614.17	101.07	987.45	624.49	218.07	919.32	571.91	165.11	875.72	609.45	232.23	860.24	611.15	-59.707	1438	158.44	-187.54	1127.4	66.478	-195.86	1127.2	145.28	-114.43	990.94	15.979	-51.453	888.46	41.942	-130.2	872.42	25.76	-60.717	743.74	504.67	-84.056	558.19	474.51	-6.4227	649.92	457.82	-71.026	649.17	493.5	-102.95	454.26	454.11	-94.22	360.91	365.61	-147.55	178.85	355.29	-124.78	266.48	435.66	-117.76	271.08	363.09	-203.35	102.11	307.38	-81.728	38.959	302.75	-104.64	31.907	394.24	101.7	596.26	138.45	119.54	710.32	153.64	58.012	673.9	121.77	190.56	406.27	210.45	-172.37	971.57	359.66	-64.875	1580.8	265.19	132.87	488.22	157.15	186.35	313.36	218.32	11.027	760.08	118.36	185.92	220.86	224.8	114.39	1623.7	288.13	-29.787	1050	524.78	290.75	67.15	266.91	88.835	47.353	262.46	260.12	55.734	191.05	-223.63	85.602	395.36	124.26	91.779	209.37	149.1	309.09	156.04	-61.362	835.1	-4.7741	-25.329	26.283	321.06	328.41	78.629	243.18	-136.07	1250.6	71.555	-282.3	41.99	355.73
298	1.49	-57.587	1574	402.9	-75.152	1447.1	337.05	-172.02	1139.3	317.21	59.221	1368	308.9	-135.37	1353.9	440.13	11.013	952.98	160.03	15.327	948.45	464.26	-162.72	965.68	254.51	5.7911	1402.9	475.55	-0.7201	1219.2	571.07	-5.6009	1089.6	614.44	109.24	988.76	624.75	227.03	921.89	571.81	174.91	877.74	609.59	241.92	863.07	610.9	-54.394	1437.1	158.28	-182.43	1126.8	67.05	-190.43	1126.7	145.61	-110.61	989.88	15.821	-48.378	886.91	41.004	-127.4	871.37	25.405	-56.042	743.22	504.69	-80.546	557.92	474.33	-2.4726	649.15	457.6	-66.687	648.59	493.36	-100.42	454.04	453.95	-92.159	360.51	365.55	-146.56	178.58	355.44	-123.8	266.26	435.72	-116.46	270.92	362.8	-202.93	102.43	307.36	-81.73	38.921	302.73	-104.6	31.925	394.29	106.01	594.92	138.93	124.28	708.68	153.98	62.652	672.64	121.9	196.66	406.45	210.7	-166.61	970.79	359.29	-59.706	1579.9	264.87	136.82	486.31	157.93	195.98	313.4	218.49	16.658	759.21	118.25	199.21	221.21	224.75	120.17	1622.9	287.22	-22.672	1049.4	525.42	309.49	69.153	267.25	107.91	44.855	263.01	278.76	56.899	191.38	-223.53	86.04	395.42	142.05	89.863	209.98	158.55	307.95	156.62	-59.274	833.27	-5.5106	-25.228	26.106	320.97	346.87	81.096	243.2	-130.89	1249.7	71.973	-282.22	42.555	355.83
299	1.495	-51.963	1573.5	402.49	-69.53	1446.5	336.65	-165.9	1138.2	316.8	64.873	1367.2	308.65	-129.67	1352.9	439.93	17.253	952.07	159.75	20.617	947.63	464.15	-156.95	964.85	254.21	11.596	1402.2	475.39	5.5068	1219.1	571.13	1.6982	1089.4	614.86	117.62	989.96	624.97	236.25	924.57	571.58	184.51	879.77	609.35	251.88	865.84	610.82	-48.876	1436.1	158.03	-177.17	1126.2	67.054	-184.73	1125.9	146.14	-106.84	988.66	15.706	-45.623	885.06	40.459	-124.66	870.24	25.126	-51.319	742.64	504.53	-77.057	557.61	474.3	1.4162	648.42	457.38	-62.843	648.22	493.31	-97.301	453.78	453.66	-90.204	360.09	365.52	-145.92	178.28	355.63	-122.07	266.14	435.67	-115.09	271.11	362.13	-202.55	102.7	307.34	-81.655	38.867	302.71	-104.8	32.384	393.7	110.14	593.31	139.24	128.99	706.82	154.14	67.584	671.35	121.96	202.74	406.46	211.14	-161.11	970.09	358.81	-54.134	1579	264.14	140.62	484.22	158.83	205.25	313.58	218.86	22.105	758.15	117.85	211.89	221.35	225.15	125.4	1622.4	286.47	-15.369	1048.9	526.06	327.72	71.481	267.68	126.66	42.658	263.54	296.95	58.791	191.79	-223.36	86.357	395.49	159.15	88.31	210.41	167.74	306.75	157.19	-57.178	831.43	-6.2419	-25.184	25.932	320.77	365.07	83.703	243.55	-125.32	1249	71.877	-282.2	43.106	355.9
